<?xml version="1.0" encoding="UTF-8" standalone="no"?>
<svg width="1087px" height="189px" viewBox="0 0 1087 189" version="1.1" xmlns="http://www.w3.org/2000/svg" xmlns:xlink="http://www.w3.org/1999/xlink">
    <!-- Generator: Sketch 39.1 (31720) - http://www.bohemiancoding.com/sketch -->
    <title>black-logo-word</title>
    <desc>Created with Sketch.</desc>
    <defs></defs>
    <g id="Page-1" stroke="none" stroke-width="1" fill="none" fill-rule="evenodd">
        <g id="Group-2" fill="#292929">
            <path d="M94.5,189 C146.690909,189 189,146.690909 189,94.5 C189,42.3090911 146.690909,0 94.5,0 C42.3090911,0 0,42.3090911 0,94.5 C0,146.690909 42.3090911,189 94.5,189 Z M94.5,187.534884 C43.1182525,187.534884 1.46511628,145.881747 1.46511628,94.5 C1.46511628,43.1182525 43.1182525,1.46511628 94.5,1.46511628 C145.881747,1.46511628 187.534884,43.1182525 187.534884,94.5 C187.534884,145.881747 145.881747,187.534884 94.5,187.534884 Z M94.5,178.011628 C140.622199,178.011628 178.011628,140.622199 178.011628,94.5 C178.011628,48.3778015 140.622199,10.9883721 94.5,10.9883721 C48.3778015,10.9883721 10.9883721,48.3778015 10.9883721,94.5 C10.9883721,140.622199 48.3778015,178.011628 94.5,178.011628 Z M94.5,175.081395 C49.9961242,175.081395 13.9186047,139.003876 13.9186047,94.5 C13.9186047,49.9961242 49.9961242,13.9186047 94.5,13.9186047 C139.003876,13.9186047 175.081395,49.9961242 175.081395,94.5 C175.081395,139.003876 139.003876,175.081395 94.5,175.081395 Z M94.5,167.023256 C134.553488,167.023256 167.023256,134.553488 167.023256,94.5 C167.023256,54.4465118 134.553488,21.9767442 94.5,21.9767442 C54.4465118,21.9767442 21.9767442,54.4465118 21.9767442,94.5 C21.9767442,134.553488 54.4465118,167.023256 94.5,167.023256 Z M94.5,162.627907 C56.8739959,162.627907 26.372093,132.126004 26.372093,94.5 C26.372093,56.8739959 56.8739959,26.372093 94.5,26.372093 C132.126004,26.372093 162.627907,56.8739959 162.627907,94.5 C162.627907,132.126004 132.126004,162.627907 94.5,162.627907 Z M94.5,156.034884 C128.484778,156.034884 156.034884,128.484778 156.034884,94.5 C156.034884,60.5152221 128.484778,32.9651163 94.5,32.9651163 C60.5152221,32.9651163 32.9651163,60.5152221 32.9651163,94.5 C32.9651163,128.484778 60.5152221,156.034884 94.5,156.034884 Z M94.5,150.174419 C63.7518677,150.174419 38.8255814,125.248132 38.8255814,94.5 C38.8255814,63.7518677 63.7518677,38.8255814 94.5,38.8255814 C125.248132,38.8255814 150.174419,63.7518677 150.174419,94.5 C150.174419,125.248132 125.248132,150.174419 94.5,150.174419 Z M94.5,145.046512 C122.416068,145.046512 145.046512,122.416068 145.046512,94.5 C145.046512,66.5839325 122.416068,43.9534884 94.5,43.9534884 C66.5839325,43.9534884 43.9534884,66.5839325 43.9534884,94.5 C43.9534884,122.416068 66.5839325,145.046512 94.5,145.046512 Z M94.5,137.72093 C70.6297394,137.72093 51.2790698,118.370261 51.2790698,94.5 C51.2790698,70.6297394 70.6297394,51.2790698 94.5,51.2790698 C118.370261,51.2790698 137.72093,70.6297394 137.72093,94.5 C137.72093,118.370261 118.370261,137.72093 94.5,137.72093 Z M94.5,134.05814 C116.347357,134.05814 134.05814,116.347357 134.05814,94.5 C134.05814,72.6526428 116.347357,54.9418605 94.5,54.9418605 C72.6526428,54.9418605 54.9418605,72.6526428 54.9418605,94.5 C54.9418605,116.347357 72.6526428,134.05814 94.5,134.05814 Z M94.5,125.267442 C77.5076111,125.267442 63.7325581,111.492389 63.7325581,94.5 C63.7325581,77.5076111 77.5076111,63.7325581 94.5,63.7325581 C111.492389,63.7325581 125.267442,77.5076111 125.267442,94.5 C125.267442,111.492389 111.492389,125.267442 94.5,125.267442 Z M94.5,123.069767 C110.278647,123.069767 123.069767,110.278647 123.069767,94.5 C123.069767,78.7213531 110.278647,65.9302326 94.5,65.9302326 C78.7213531,65.9302326 65.9302326,78.7213531 65.9302326,94.5 C65.9302326,110.278647 78.7213531,123.069767 94.5,123.069767 Z M94.5,112.813953 C84.3854828,112.813953 76.1860465,104.614517 76.1860465,94.5 C76.1860465,84.3854828 84.3854828,76.1860465 94.5,76.1860465 C104.614517,76.1860465 112.813953,84.3854828 112.813953,94.5 C112.813953,104.614517 104.614517,112.813953 94.5,112.813953 Z M94.5,112.081395 C104.209937,112.081395 112.081395,104.209937 112.081395,94.5 C112.081395,84.7900635 104.209937,76.9186047 94.5,76.9186047 C84.7900635,76.9186047 76.9186047,84.7900635 76.9186047,94.5 C76.9186047,104.209937 84.7900635,112.081395 94.5,112.081395 Z M94.5,100.360465 C91.2633545,100.360465 88.6395349,97.7366455 88.6395349,94.5 C88.6395349,91.2633545 91.2633545,88.6395349 94.5,88.6395349 C97.7366455,88.6395349 100.360465,91.2633545 100.360465,94.5 C100.360465,97.7366455 97.7366455,100.360465 94.5,100.360465 Z" id="Combined-Shape-Copy-71"></path>
            <path d="M225,21 L225,163.8 L256.4,163.8 L256.4,104.8 L316.2,104.8 L316.2,80.4 L256.4,80.4 L256.4,47.4 L325.4,47.4 L325.4,21 L225,21 Z M403.0125,101 L356.8125,101 C356.945834,98.99999 357.379163,96.733346 358.1125,94.2 C358.845837,91.666654 360.112491,89.266678 361.9125,87 C363.712509,84.733322 366.112485,82.833341 369.1125,81.3 C372.112515,79.766659 375.879144,79 380.4125,79 C387.345868,79 392.512483,80.866648 395.9125,84.6 C399.312517,88.333352 401.67916,93.799964 403.0125,101 L403.0125,101 Z M356.8125,119 L431.4125,119 C431.945836,110.99996 431.279176,103.33337 429.4125,96 C427.545824,88.66663 424.512521,82.133362 420.3125,76.4 C416.112479,70.666638 410.745866,66.100017 404.2125,62.7 C397.679134,59.299983 390.012544,57.6 381.2125,57.6 C373.345794,57.6 366.179199,58.999986 359.7125,61.8 C353.245801,64.600014 347.67919,68.433309 343.0125,73.3 C338.34581,78.166691 334.745846,83.9333 332.2125,90.6 C329.679154,97.2667 328.4125,104.466628 328.4125,112.2 C328.4125,120.20004 329.645821,127.5333 332.1125,134.2 C334.579179,140.8667 338.079144,146.599976 342.6125,151.4 C347.145856,156.200024 352.679134,159.899987 359.2125,162.5 C365.745866,165.100013 373.079126,166.4 381.2125,166.4 C392.945892,166.4 402.945792,163.73336 411.2125,158.4 C419.479208,153.06664 425.61248,144.200062 429.6125,131.8 L404.6125,131.8 C403.679162,135.000016 401.145854,138.033319 397.0125,140.9 C392.879146,143.766681 387.945862,145.2 382.2125,145.2 C374.21246,145.2 368.079188,143.133354 363.8125,139 C359.545812,134.866646 357.212502,128.200046 356.8125,119 L356.8125,119 Z M514.425,111.8 C514.425,116.066688 514.025004,120.19998 513.225,124.2 C512.424996,128.20002 511.091676,131.766651 509.225,134.9 C507.358324,138.033349 504.858349,140.533324 501.725,142.4 C498.591651,144.266676 494.69169,145.2 490.025,145.2 C485.624978,145.2 481.858349,144.233343 478.725,142.3 C475.591651,140.366657 472.991677,137.833349 470.925,134.7 C468.858323,131.566651 467.358338,128.00002 466.425,124 C465.491662,119.99998 465.025,116.00002 465.025,112 C465.025,107.733312 465.458329,103.633353 466.325,99.7 C467.191671,95.766647 468.591657,92.266682 470.525,89.2 C472.458343,86.133318 475.024984,83.666676 478.225,81.8 C481.425016,79.933324 485.35831,79 490.025,79 C494.69169,79 498.558318,79.933324 501.625,81.8 C504.691682,83.666676 507.191657,86.099985 509.125,89.1 C511.058343,92.100015 512.424996,95.566647 513.225,99.5 C514.025004,103.433353 514.425,107.533312 514.425,111.8 L514.425,111.8 Z M514.825,150.6 L514.825,163.8 L541.825,163.8 L541.825,21 L513.425,21 L513.425,73 L513.025,73 C509.824984,67.933308 505.458361,64.100013 499.925,61.5 C494.391639,58.899987 488.558364,57.6 482.425,57.6 C474.824962,57.6 468.158362,59.099985 462.425,62.1 C456.691638,65.100015 451.925019,69.066642 448.125,74 C444.324981,78.933358 441.458343,84.633301 439.525,91.1 C437.591657,97.566699 436.625,104.266632 436.625,111.2 C436.625,118.400036 437.591657,125.3333 439.525,132 C441.458343,138.6667 444.324981,144.566641 448.125,149.7 C451.925019,154.833359 456.758304,158.899985 462.625,161.9 C468.491696,164.900015 475.291628,166.4 483.025,166.4 C489.825034,166.4 495.924973,165.166679 501.325,162.7 C506.725027,160.233321 511.09165,156.200028 514.425,150.6 L514.825,150.6 Z M625.6375,101 L579.4375,101 C579.570834,98.99999 580.004163,96.733346 580.7375,94.2 C581.470837,91.666654 582.737491,89.266678 584.5375,87 C586.337509,84.733322 588.737485,82.833341 591.7375,81.3 C594.737515,79.766659 598.504144,79 603.0375,79 C609.970868,79 615.137483,80.866648 618.5375,84.6 C621.937517,88.333352 624.30416,93.799964 625.6375,101 L625.6375,101 Z M579.4375,119 L654.0375,119 C654.570836,110.99996 653.904176,103.33337 652.0375,96 C650.170824,88.66663 647.137521,82.133362 642.9375,76.4 C638.737479,70.666638 633.370866,66.100017 626.8375,62.7 C620.304134,59.299983 612.637544,57.6 603.8375,57.6 C595.970794,57.6 588.804199,58.999986 582.3375,61.8 C575.870801,64.600014 570.30419,68.433309 565.6375,73.3 C560.97081,78.166691 557.370846,83.9333 554.8375,90.6 C552.304154,97.2667 551.0375,104.466628 551.0375,112.2 C551.0375,120.20004 552.270821,127.5333 554.7375,134.2 C557.204179,140.8667 560.704144,146.599976 565.2375,151.4 C569.770856,156.200024 575.304134,159.899987 581.8375,162.5 C588.370866,165.100013 595.704126,166.4 603.8375,166.4 C615.570892,166.4 625.570792,163.73336 633.8375,158.4 C642.104208,153.06664 648.23748,144.200062 652.2375,131.8 L627.2375,131.8 C626.304162,135.000016 623.770854,138.033319 619.6375,140.9 C615.504146,143.766681 610.570862,145.2 604.8375,145.2 C596.83746,145.2 590.704188,143.133354 586.4375,139 C582.170812,134.866646 579.837502,128.200046 579.4375,119 L579.4375,119 Z M663.65,60.4 L663.65,163.8 L692.05,163.8 L692.05,117.2 C692.05,112.53331 692.516662,108.20002 693.45,104.2 C694.383338,100.19998 695.949989,96.700015 698.15,93.7 C700.350011,90.699985 703.249982,88.333342 706.85,86.6 C710.450018,84.866658 714.849974,84 720.05,84 C721.783342,84 723.583324,84.099999 725.45,84.3 C727.316676,84.500001 728.91666,84.733332 730.25,85 L730.25,58.6 C727.983322,57.93333 725.916676,57.6 724.05,57.6 C720.449982,57.6 716.98335,58.133328 713.65,59.2 C710.31665,60.266672 707.183348,61.766657 704.25,63.7 C701.316652,65.633343 698.716678,67.966653 696.45,70.7 C694.183322,73.433347 692.38334,76.399984 691.05,79.6 L690.65,79.6 L690.65,60.4 L663.65,60.4 Z M733.0625,92.2 C733.462502,85.5333 735.129152,80.000022 738.0625,75.6 C740.995848,71.199978 744.729144,67.66668 749.2625,65 C753.795856,62.33332 758.895805,60.433339 764.5625,59.3 C770.229195,58.166661 775.929138,57.6 781.6625,57.6 C786.862526,57.6 792.12914,57.966663 797.4625,58.7 C802.79586,59.433337 807.662478,60.866656 812.0625,63 C816.462522,65.133344 820.062486,68.099981 822.8625,71.9 C825.662514,75.700019 827.0625,80.733302 827.0625,87 L827.0625,140.8 C827.0625,145.46669 827.329164,149.933312 827.8625,154.2 C828.395836,158.466688 829.32916,161.666656 830.6625,163.8 L801.8625,163.8 C801.329164,162.199992 800.895835,160.566675 800.5625,158.9 C800.229165,157.233325 799.995834,155.533342 799.8625,153.8 C795.329144,158.46669 789.995864,161.733324 783.8625,163.6 C777.729136,165.466676 771.462532,166.4 765.0625,166.4 C760.129142,166.4 755.529188,165.800006 751.2625,164.6 C746.995812,163.399994 743.262516,161.533346 740.0625,159 C736.862484,156.466654 734.362509,153.266686 732.5625,149.4 C730.762491,145.533314 729.8625,140.93336 729.8625,135.6 C729.8625,129.733304 730.895823,124.900019 732.9625,121.1 C735.029177,117.299981 737.695817,114.266678 740.9625,112 C744.229183,109.733322 747.962479,108.033339 752.1625,106.9 C756.362521,105.766661 760.595812,104.86667 764.8625,104.2 C769.129188,103.53333 773.329146,103.000002 777.4625,102.6 C781.595854,102.199998 785.262484,101.600004 788.4625,100.8 C791.662516,99.999996 794.195824,98.833341 796.0625,97.3 C797.929176,95.766659 798.795834,93.533348 798.6625,90.6 C798.6625,87.533318 798.162505,85.100009 797.1625,83.3 C796.162495,81.499991 794.829175,80.100005 793.1625,79.1 C791.495825,78.099995 789.562511,77.433335 787.3625,77.1 C785.162489,76.766665 782.795846,76.6 780.2625,76.6 C774.662472,76.6 770.262516,77.799988 767.0625,80.2 C763.862484,82.600012 761.995836,86.599972 761.4625,92.2 L733.0625,92.2 Z M798.6625,113.2 C797.462494,114.266672 795.962509,115.099997 794.1625,115.7 C792.362491,116.300003 790.429177,116.799998 788.3625,117.2 C786.295823,117.600002 784.129178,117.933332 781.8625,118.2 C779.595822,118.466668 777.329178,118.799998 775.0625,119.2 C772.929156,119.600002 770.829177,120.13333 768.7625,120.8 C766.695823,121.46667 764.895841,122.366661 763.3625,123.5 C761.829159,124.633339 760.595838,126.066658 759.6625,127.8 C758.729162,129.533342 758.2625,131.73332 758.2625,134.4 C758.2625,136.933346 758.729162,139.066658 759.6625,140.8 C760.595838,142.533342 761.862492,143.899995 763.4625,144.9 C765.062508,145.900005 766.929156,146.599998 769.0625,147 C771.195844,147.400002 773.395822,147.6 775.6625,147.6 C781.262528,147.6 785.595818,146.666676 788.6625,144.8 C791.729182,142.933324 793.995826,140.700013 795.4625,138.1 C796.929174,135.499987 797.829165,132.86668 798.1625,130.2 C798.495835,127.53332 798.6625,125.400008 798.6625,123.8 L798.6625,113.2 Z M877.875,60.4 L877.875,29.4 L849.475,29.4 L849.475,60.4 L832.275,60.4 L832.275,79.4 L849.475,79.4 L849.475,140.4 C849.475,145.600026 850.341658,149.799984 852.075,153 C853.808342,156.200016 856.174985,158.666658 859.175,160.4 C862.175015,162.133342 865.641647,163.299997 869.575,163.9 C873.508353,164.500003 877.674978,164.8 882.075,164.8 C884.875014,164.8 887.741652,164.733334 890.675,164.6 C893.608348,164.466666 896.274988,164.200002 898.675,163.8 L898.675,141.8 C897.34166,142.066668 895.941674,142.266666 894.475,142.4 C893.008326,142.533334 891.475008,142.6 889.875,142.6 C885.074976,142.6 881.875008,141.800008 880.275,140.2 C878.674992,138.599992 877.875,135.400024 877.875,130.6 L877.875,79.4 L898.675,79.4 L898.675,60.4 L877.875,60.4 Z M934.2875,44.4 L934.2875,21 L905.8875,21 L905.8875,44.4 L934.2875,44.4 Z M905.8875,60.4 L905.8875,163.8 L934.2875,163.8 L934.2875,60.4 L905.8875,60.4 Z M948.3,92.2 C948.700002,85.5333 950.366652,80.000022 953.3,75.6 C956.233348,71.199978 959.966644,67.66668 964.5,65 C969.033356,62.33332 974.133305,60.433339 979.8,59.3 C985.466695,58.166661 991.166638,57.6 996.9,57.6 C1002.10003,57.6 1007.36664,57.966663 1012.7,58.7 C1018.03336,59.433337 1022.89998,60.866656 1027.3,63 C1031.70002,65.133344 1035.29999,68.099981 1038.1,71.9 C1040.90001,75.700019 1042.3,80.733302 1042.3,87 L1042.3,140.8 C1042.3,145.46669 1042.56666,149.933312 1043.1,154.2 C1043.63334,158.466688 1044.56666,161.666656 1045.9,163.8 L1017.1,163.8 C1016.56666,162.199992 1016.13333,160.566675 1015.8,158.9 C1015.46667,157.233325 1015.23333,155.533342 1015.1,153.8 C1010.56664,158.46669 1005.23336,161.733324 999.1,163.6 C992.966636,165.466676 986.700032,166.4 980.3,166.4 C975.366642,166.4 970.766688,165.800006 966.5,164.6 C962.233312,163.399994 958.500016,161.533346 955.3,159 C952.099984,156.466654 949.600009,153.266686 947.8,149.4 C945.999991,145.533314 945.1,140.93336 945.1,135.6 C945.1,129.733304 946.133323,124.900019 948.2,121.1 C950.266677,117.299981 952.933317,114.266678 956.2,112 C959.466683,109.733322 963.199979,108.033339 967.4,106.9 C971.600021,105.766661 975.833312,104.86667 980.1,104.2 C984.366688,103.53333 988.566646,103.000002 992.7,102.6 C996.833354,102.199998 1000.49998,101.600004 1003.7,100.8 C1006.90002,99.999996 1009.43332,98.833341 1011.3,97.3 C1013.16668,95.766659 1014.03333,93.533348 1013.9,90.6 C1013.9,87.533318 1013.40001,85.100009 1012.4,83.3 C1011.39999,81.499991 1010.06668,80.100005 1008.4,79.1 C1006.73332,78.099995 1004.80001,77.433335 1002.6,77.1 C1000.39999,76.766665 998.033346,76.6 995.5,76.6 C989.899972,76.6 985.500016,77.799988 982.3,80.2 C979.099984,82.600012 977.233336,86.599972 976.7,92.2 L948.3,92.2 Z M1013.9,113.2 C1012.69999,114.266672 1011.20001,115.099997 1009.4,115.7 C1007.59999,116.300003 1005.66668,116.799998 1003.6,117.2 C1001.53332,117.600002 999.366678,117.933332 997.1,118.2 C994.833322,118.466668 992.566678,118.799998 990.3,119.2 C988.166656,119.600002 986.066677,120.13333 984,120.8 C981.933323,121.46667 980.133341,122.366661 978.6,123.5 C977.066659,124.633339 975.833338,126.066658 974.9,127.8 C973.966662,129.533342 973.5,131.73332 973.5,134.4 C973.5,136.933346 973.966662,139.066658 974.9,140.8 C975.833338,142.533342 977.099992,143.899995 978.7,144.9 C980.300008,145.900005 982.166656,146.599998 984.3,147 C986.433344,147.400002 988.633322,147.6 990.9,147.6 C996.500028,147.6 1000.83332,146.666676 1003.9,144.8 C1006.96668,142.933324 1009.23333,140.700013 1010.7,138.1 C1012.16667,135.499987 1013.06667,132.86668 1013.4,130.2 C1013.73334,127.53332 1013.9,125.400008 1013.9,123.8 L1013.9,113.2 Z M1057.9125,21 L1057.9125,163.8 L1086.3125,163.8 L1086.3125,21 L1057.9125,21 Z" id="Federatial-Copy-12"></path>
        </g>
    </g>
</svg>