<?xml version="1.0" encoding="UTF-8" standalone="no"?>
<svg width="189px" height="189px" viewBox="0 0 189 189" version="1.1" xmlns="http://www.w3.org/2000/svg" xmlns:xlink="http://www.w3.org/1999/xlink">
    <!-- Generator: Sketch 39.1 (31720) - http://www.bohemiancoding.com/sketch -->
    <title>square-mark</title>
    <desc>Created with Sketch.</desc>
    <defs></defs>
    <g id="Page-1" stroke="none" stroke-width="1" fill="none" fill-rule="evenodd">
        <path d="M94.5,189 C146.690909,189 189,146.690909 189,94.5 C189,42.3090911 146.690909,0 94.5,0 C42.3090911,0 0,42.3090911 0,94.5 C0,146.690909 42.3090911,189 94.5,189 Z M94.5,187.534884 C43.1182525,187.534884 1.46511628,145.881747 1.46511628,94.5 C1.46511628,43.1182525 43.1182525,1.46511628 94.5,1.46511628 C145.881747,1.46511628 187.534884,43.1182525 187.534884,94.5 C187.534884,145.881747 145.881747,187.534884 94.5,187.534884 Z M94.5,178.011628 C140.622199,178.011628 178.011628,140.622199 178.011628,94.5 C178.011628,48.3778015 140.622199,10.9883721 94.5,10.9883721 C48.3778015,10.9883721 10.9883721,48.3778015 10.9883721,94.5 C10.9883721,140.622199 48.3778015,178.011628 94.5,178.011628 Z M94.5,175.081395 C49.9961242,175.081395 13.9186047,139.003876 13.9186047,94.5 C13.9186047,49.9961242 49.9961242,13.9186047 94.5,13.9186047 C139.003876,13.9186047 175.081395,49.9961242 175.081395,94.5 C175.081395,139.003876 139.003876,175.081395 94.5,175.081395 Z M94.5,167.023256 C134.553488,167.023256 167.023256,134.553488 167.023256,94.5 C167.023256,54.4465118 134.553488,21.9767442 94.5,21.9767442 C54.4465118,21.9767442 21.9767442,54.4465118 21.9767442,94.5 C21.9767442,134.553488 54.4465118,167.023256 94.5,167.023256 Z M94.5,162.627907 C56.8739959,162.627907 26.372093,132.126004 26.372093,94.5 C26.372093,56.8739959 56.8739959,26.372093 94.5,26.372093 C132.126004,26.372093 162.627907,56.8739959 162.627907,94.5 C162.627907,132.126004 132.126004,162.627907 94.5,162.627907 Z M94.5,156.034884 C128.484778,156.034884 156.034884,128.484778 156.034884,94.5 C156.034884,60.5152221 128.484778,32.9651163 94.5,32.9651163 C60.5152221,32.9651163 32.9651163,60.5152221 32.9651163,94.5 C32.9651163,128.484778 60.5152221,156.034884 94.5,156.034884 Z M94.5,150.174419 C63.7518677,150.174419 38.8255814,125.248132 38.8255814,94.5 C38.8255814,63.7518677 63.7518677,38.8255814 94.5,38.8255814 C125.248132,38.8255814 150.174419,63.7518677 150.174419,94.5 C150.174419,125.248132 125.248132,150.174419 94.5,150.174419 Z M94.5,145.046512 C122.416068,145.046512 145.046512,122.416068 145.046512,94.5 C145.046512,66.5839325 122.416068,43.9534884 94.5,43.9534884 C66.5839325,43.9534884 43.9534884,66.5839325 43.9534884,94.5 C43.9534884,122.416068 66.5839325,145.046512 94.5,145.046512 Z M94.5,137.72093 C70.6297394,137.72093 51.2790698,118.370261 51.2790698,94.5 C51.2790698,70.6297394 70.6297394,51.2790698 94.5,51.2790698 C118.370261,51.2790698 137.72093,70.6297394 137.72093,94.5 C137.72093,118.370261 118.370261,137.72093 94.5,137.72093 Z M94.5,134.05814 C116.347357,134.05814 134.05814,116.347357 134.05814,94.5 C134.05814,72.6526428 116.347357,54.9418605 94.5,54.9418605 C72.6526428,54.9418605 54.9418605,72.6526428 54.9418605,94.5 C54.9418605,116.347357 72.6526428,134.05814 94.5,134.05814 Z M94.5,125.267442 C77.5076111,125.267442 63.7325581,111.492389 63.7325581,94.5 C63.7325581,77.5076111 77.5076111,63.7325581 94.5,63.7325581 C111.492389,63.7325581 125.267442,77.5076111 125.267442,94.5 C125.267442,111.492389 111.492389,125.267442 94.5,125.267442 Z M94.5,123.069767 C110.278647,123.069767 123.069767,110.278647 123.069767,94.5 C123.069767,78.7213531 110.278647,65.9302326 94.5,65.9302326 C78.7213531,65.9302326 65.9302326,78.7213531 65.9302326,94.5 C65.9302326,110.278647 78.7213531,123.069767 94.5,123.069767 Z M94.5,112.813953 C84.3854828,112.813953 76.1860465,104.614517 76.1860465,94.5 C76.1860465,84.3854828 84.3854828,76.1860465 94.5,76.1860465 C104.614517,76.1860465 112.813953,84.3854828 112.813953,94.5 C112.813953,104.614517 104.614517,112.813953 94.5,112.813953 Z M94.5,112.081395 C104.209937,112.081395 112.081395,104.209937 112.081395,94.5 C112.081395,84.7900635 104.209937,76.9186047 94.5,76.9186047 C84.7900635,76.9186047 76.9186047,84.7900635 76.9186047,94.5 C76.9186047,104.209937 84.7900635,112.081395 94.5,112.081395 Z M94.5,100.360465 C91.2633545,100.360465 88.6395349,97.7366455 88.6395349,94.5 C88.6395349,91.2633545 91.2633545,88.6395349 94.5,88.6395349 C97.7366455,88.6395349 100.360465,91.2633545 100.360465,94.5 C100.360465,97.7366455 97.7366455,100.360465 94.5,100.360465 Z" id="Combined-Shape-Copy-73" fill="#f8f835"></path>
    </g>
</svg>